<svg xmlns="http://www.w3.org/2000/svg" width="33" height="29.04" viewBox="0 0 33 29.04">
  <path id="icons8-code_1_" data-name="icons8-code (1)" d="M1.98,3A1.991,1.991,0,0,0,0,4.98V32.04H33V4.98A1.991,1.991,0,0,0,31.02,3Zm0,1.32H31.02a.648.648,0,0,1,.66.66V6.96H1.32V4.98A.648.648,0,0,1,1.98,4.32ZM1.32,8.28H31.68V30.72H1.32ZM19.078,10.9A.769.769,0,0,0,19,10.92a.661.661,0,0,0-.474.413l-5.94,14.52a.666.666,0,1,0,1.238.5l5.94-14.52a.661.661,0,0,0-.681-.928Zm-8.559,3.96a.581.581,0,0,0-.062.021.649.649,0,0,0-.227.082L5.61,17.6a.66.66,0,0,0,0,1.155l4.62,2.64a.665.665,0,1,0,.66-1.155L7.281,18.18l3.609-2.062a.66.66,0,0,0-.371-1.258Zm11.8.021a.66.66,0,0,0-.206,1.237l3.609,2.063L22.11,20.243a.665.665,0,0,0,.66,1.155l4.62-2.64a.66.66,0,0,0,0-1.155l-4.62-2.64A.664.664,0,0,0,22.316,14.88Z" transform="translate(0 -3)"/>
</svg>
