<svg xmlns="http://www.w3.org/2000/svg" width="39.333" height="31.06" viewBox="0 0 39.333 31.06">
  <path id="icons8-upload-to-cloud" d="M22.813,4.531a10.282,10.282,0,0,0-9.243,5.925A5.416,5.416,0,0,0,10.5,9.4,5.47,5.47,0,0,0,5.064,14.61,7.548,7.548,0,0,0,7.6,29.287H14.16a.787.787,0,1,0,0-1.573H7.6A6.034,6.034,0,0,1,6,15.864a.786.786,0,0,0,.565-.787c0-.111,0-.166,0-.172A3.946,3.946,0,0,1,13.3,12.128a.787.787,0,0,0,1.278-.27A8.774,8.774,0,0,1,31.59,14.881a8.644,8.644,0,0,1-.074,1.082.787.787,0,0,0,.762.885h.049a5.433,5.433,0,0,1,0,10.866H25.173a.787.787,0,1,0,0,1.573h7.154a7.019,7.019,0,0,0,7.006-7.006,6.934,6.934,0,0,0-6.22-6.834c.012-.191.049-.369.049-.565A10.366,10.366,0,0,0,22.813,4.531ZM19.667,17.954l-.565.541-3.933,3.933A.8.8,0,0,0,16.3,23.559l2.581-2.581V34.793a.787.787,0,1,0,1.573,0V20.978l2.581,2.581a.8.8,0,0,0,1.131-1.131l-3.933-3.933Z" transform="translate(0 -4.531)"/>
</svg>
