<svg xmlns="http://www.w3.org/2000/svg" width="28.08" height="28.08" viewBox="0 0 28.08 28.08">
  <path id="icons8-link" d="M26.063,4a5.977,5.977,0,0,0-4.254,1.763L18.466,9.106a5.973,5.973,0,0,0-1.721,3.539,6.193,6.193,0,0,0-.042.716,5.989,5.989,0,0,0,.594,2.6l1.02-1.021a4.662,4.662,0,0,1,1.094-4.885l3.343-3.343a4.68,4.68,0,1,1,6.618,6.618l-3.343,3.343a4.662,4.662,0,0,1-4.885,1.094l-1.021,1.02a6,6,0,0,0,6.852-1.169l3.343-3.343A6.017,6.017,0,0,0,26.063,4Zm-4.024,9.353a.669.669,0,0,0-.46.2l-8.023,8.023a.669.669,0,1,0,.945.945L22.524,14.5a.669.669,0,0,0-.486-1.148ZM13.36,16.7a5.977,5.977,0,0,0-4.254,1.763L5.763,21.809a5.969,5.969,0,0,0-1.751,3.869Q4,25.869,4,26.063a6.017,6.017,0,0,0,10.271,4.254l3.343-3.343a6,6,0,0,0,1.169-6.852l-1.02,1.021a4.662,4.662,0,0,1-1.094,4.885l-3.343,3.343a4.68,4.68,0,1,1-6.618-6.618l3.343-3.343a4.662,4.662,0,0,1,4.885-1.094l1.021-1.02A5.989,5.989,0,0,0,13.36,16.7Z" transform="translate(-4 -4)"/>
</svg>
