<svg xmlns="http://www.w3.org/2000/svg" width="25.5" height="23.357" viewBox="0 0 25.5 23.357">
  <path id="icons8-peanuts" d="M14.079,1a4.133,4.133,0,0,0-.465.015,3.427,3.427,0,0,0-1.593.547A6.891,6.891,0,0,0,9.965,4.054c-1.122,1.959-2.1,4.121-4.413,4.818a6.294,6.294,0,0,0-3.915,2.934,5.618,5.618,0,0,0-.63,3.207A5.3,5.3,0,0,0,3.3,18.721a6.2,6.2,0,0,0,3.666.775,10.663,10.663,0,0,0,4.5,3.526c4.22,1.621,7.841,1.632,10.485.73S26.268,21,26.455,18.98a3.373,3.373,0,0,0-.863-2.842,5.435,5.435,0,0,0-2.538-1.262c-1.771-.462-3.826-.656-5.392-1.429A11.066,11.066,0,0,0,19.537,6.5a5.929,5.929,0,0,0-3.882-5.213A5.559,5.559,0,0,0,14.079,1Zm-.017.973a4.459,4.459,0,0,1,1.228.243,4.927,4.927,0,0,1,3.169,4.377,10.317,10.317,0,0,1-1.924,6.642.511.511,0,0,0-.133.182c-.006.009-.01.021-.017.03v.015A18.6,18.6,0,0,1,15.224,15a11.027,11.027,0,0,1-5.956,3.192c-2.277.5-4.477.321-5.325-.258a3.887,3.887,0,0,1-.365-.3C8.654,15.587,14.068,12.2,15.522,4.966a.47.47,0,0,0-.133-.437.57.57,0,0,0-.465-.156.525.525,0,0,0-.465.41c-1.4,6.982-6.578,10.081-11.6,12.053a4.513,4.513,0,0,1-.78-1.915,4.8,4.8,0,0,1,.531-2.675A5.1,5.1,0,0,1,5.884,9.815c2.841-.857,3.957-3.393,5.043-5.289a6.3,6.3,0,0,1,1.725-2.158,2.222,2.222,0,0,1,1.078-.38A2.674,2.674,0,0,1,14.062,1.972ZM17.1,14.3c1.839.94,4.021,1.11,5.657,1.535a4.489,4.489,0,0,1,2.041.973,2.388,2.388,0,0,1,.581,2.1c-.145,1.575-1.462,3.124-3.8,3.921s-5.678.823-9.688-.714c0,0-.012,0-.017,0a9.483,9.483,0,0,1-3.666-2.736c.433-.057.867-.116,1.311-.213a14.949,14.949,0,0,0,3.384-1.17,18.17,18.17,0,0,0,9.639,1.824.549.549,0,0,0,.489-.262A.464.464,0,0,0,23,19.033a.569.569,0,0,0-.523-.205A17.059,17.059,0,0,1,14,17.384a8.84,8.84,0,0,0,2.09-1.778C16.453,15.169,16.793,14.732,17.1,14.3Z" transform="translate(-0.978 -0.998)" fill="#fc5400"/>
</svg>
