<svg xmlns="http://www.w3.org/2000/svg" width="24" height="23.058" viewBox="0 0 24 23.058">
  <path id="icons8-connect" d="M22.348,2A3.59,3.59,0,0,0,18.7,5.509,3.419,3.419,0,0,0,19.685,7.9l-4.368,5.127H9.263a3.615,3.615,0,0,0-3.61-3.007A3.59,3.59,0,0,0,2,13.529a3.59,3.59,0,0,0,3.652,3.509,3.615,3.615,0,0,0,3.61-3.008h6.043L19.5,19.364a3.4,3.4,0,0,0-.8,2.185,3.655,3.655,0,1,0,3.652-3.509,3.728,3.728,0,0,0-2.085.634l-4.034-5.133L20.5,8.527a3.732,3.732,0,0,0,1.85.49A3.59,3.59,0,0,0,26,5.509,3.59,3.59,0,0,0,22.348,2Zm0,1a2.551,2.551,0,0,1,2.609,2.506,2.611,2.611,0,0,1-5.217,0A2.551,2.551,0,0,1,22.348,3Zm-16.7,8.02a2.508,2.508,0,1,1,0,5.013,2.508,2.508,0,1,1,0-5.013Zm16.7,8.02a2.508,2.508,0,1,1-2.609,2.506A2.551,2.551,0,0,1,22.348,19.043Z" transform="translate(-2 -2)" fill="#fc5400"/>
</svg>
