<svg xmlns="http://www.w3.org/2000/svg" width="26.125" height="26.125" viewBox="0 0 26.125 26.125">
  <path id="icons8-instagram" d="M10.719,3A7.728,7.728,0,0,0,3,10.719V21.406a7.728,7.728,0,0,0,7.719,7.719H21.406a7.728,7.728,0,0,0,7.719-7.719V10.719A7.728,7.728,0,0,0,21.406,3Zm0,1.188H21.406a6.523,6.523,0,0,1,6.531,6.531V21.406a6.523,6.523,0,0,1-6.531,6.531H10.719a6.523,6.523,0,0,1-6.531-6.531V10.719A6.523,6.523,0,0,1,10.719,4.188ZM23.188,7.75a1.188,1.188,0,1,0,1.188,1.188A1.188,1.188,0,0,0,23.188,7.75ZM16.063,9.531a6.531,6.531,0,1,0,6.531,6.531A6.54,6.54,0,0,0,16.063,9.531Zm0,1.188a5.344,5.344,0,1,1-5.344,5.344A5.335,5.335,0,0,1,16.063,10.719Z" transform="translate(-3 -3)" fill="#27c17d"/>
</svg>
