<svg xmlns="http://www.w3.org/2000/svg" width="24.938" height="24.945" viewBox="0 0 24.938 24.945">
  <path id="icons8-facebook-old" d="M6.969,4A2.978,2.978,0,0,0,4,6.969v19a2.978,2.978,0,0,0,2.969,2.969h9.994a.594.594,0,0,0,.194,0h3.369a.594.594,0,0,0,.194,0h5.25a2.978,2.978,0,0,0,2.969-2.969v-19A2.978,2.978,0,0,0,25.969,4Zm0,1.188h19A1.772,1.772,0,0,1,27.75,6.969v19a1.772,1.772,0,0,1-1.781,1.781h-4.75V19.438h2.268l.831-4.156h-3.1V14.094c0-.331.032-.357.143-.429a2.317,2.317,0,0,1,1.045-.165h1.781V10.157L23.849,10a8.191,8.191,0,0,0-3.224-.652,3.907,3.907,0,0,0-3.136,1.41,5.28,5.28,0,0,0-1.021,3.34v1.188H14.688v4.156h1.781V27.75h-9.5a1.772,1.772,0,0,1-1.781-1.781v-19A1.772,1.772,0,0,1,6.969,5.188Zm13.656,5.344A6.248,6.248,0,0,1,23,10.948v1.365h-.594a2.992,2.992,0,0,0-1.692.356,1.678,1.678,0,0,0-.683,1.425v2.375h2.838l-.356,1.781H20.031v9.5H17.656v-9.5H15.875V16.469h1.781V14.094a4.144,4.144,0,0,1,.761-2.6A2.62,2.62,0,0,1,20.625,10.531Z" transform="translate(-4 -4)" fill="#27c17d"/>
</svg>
