<svg xmlns="http://www.w3.org/2000/svg" width="23.813" height="38.408" viewBox="0 0 23.813 38.408">
  <path id="icons8-doorbell" d="M16.914,0A6.909,6.909,0,0,0,12.3,12.06V9.679a5.285,5.285,0,0,1-.768-2.765,5.377,5.377,0,1,1,10.754,0,5.285,5.285,0,0,1-.768,2.765V12.06A6.909,6.909,0,0,0,16.914,0Zm0,4.609a3.176,3.176,0,0,0-2.052.749,2.936,2.936,0,0,0-1.02,2.247V22.619a2.981,2.981,0,0,0-1.269.7,5.466,5.466,0,0,0-1.8,4.259c0,3.464,2.14,5.692,3.04,7.1a7.405,7.405,0,0,0,6.1,3.734H26.9a6.938,6.938,0,0,0,6.914-6.914V19.972A5.122,5.122,0,0,0,33.39,17.7a2.884,2.884,0,0,0-2.65-1.566,2.936,2.936,0,0,0-1.767.582,3.237,3.237,0,0,0-.5-1.089A2.877,2.877,0,0,0,26.132,14.6a3.059,3.059,0,0,0-2.031.747,2.952,2.952,0,0,0-2.578-1.515,2.917,2.917,0,0,0-1.536.461V7.682a3.036,3.036,0,0,0-1.013-2.308A3.14,3.14,0,0,0,16.914,4.609Zm0,1.536a1.671,1.671,0,0,1,1.052.387,1.4,1.4,0,0,1,.485,1.149V19.972q0,.038,0,.077a.759.759,0,0,0,.183.416q.025.029.053.056a.773.773,0,0,0,1.049.008q.028-.026.053-.056a.731.731,0,0,0,.176-.338q.009-.037.014-.075a.767.767,0,0,0,.006-.077s0-.007,0-.011V16.9a1.536,1.536,0,1,1,3.073,0v2.3q0,.038,0,.077a.762.762,0,0,0,.8.68q.038,0,.077-.006t.075-.015a.769.769,0,0,0,.578-.648q0-.038.006-.077s0-.007,0-.011V17.668a1.759,1.759,0,0,1,.32-1.074,1.369,1.369,0,0,1,1.217-.462,1.208,1.208,0,0,1,1.119.431,3.19,3.19,0,0,1,.417,1.874v1.536a.764.764,0,0,0,.18.5q.025.029.052.056a.779.779,0,0,0,.258.165q.035.014.072.024a.674.674,0,0,0,.206.028q.038,0,.077,0a.735.735,0,0,0,.419-.176q.029-.025.056-.052a.769.769,0,0,0,.051-.059q.024-.03.045-.062a.755.755,0,0,0,.122-.416,4.054,4.054,0,0,1,.269-1.6c.212-.437.43-.7,1.268-.7s1.056.264,1.268.7a4.054,4.054,0,0,1,.269,1.6V31.495A5.389,5.389,0,0,1,26.9,36.872H19.91A5.855,5.855,0,0,1,15.1,33.846c-1.067-1.666-2.8-3.434-2.8-6.268a3.77,3.77,0,0,1,1.269-3.1,3.287,3.287,0,0,1,1.221-.69.768.768,0,0,0,.582-.746V7.605a1.3,1.3,0,0,1,.477-1.076A1.721,1.721,0,0,1,16.914,6.145Z" transform="translate(-10)"/>
</svg>
