<svg xmlns="http://www.w3.org/2000/svg" width="26.125" height="26.125" viewBox="0 0 26.125 26.125">
  <path id="icons8-twitter-squared" d="M8.938,3A5.946,5.946,0,0,0,3,8.938v14.25a5.946,5.946,0,0,0,5.938,5.938h14.25a5.946,5.946,0,0,0,5.938-5.937V8.938A5.946,5.946,0,0,0,23.188,3Zm0,1.188h14.25a4.74,4.74,0,0,1,4.75,4.75v14.25a4.741,4.741,0,0,1-4.75,4.75H8.938a4.741,4.741,0,0,1-4.75-4.75V8.938A4.741,4.741,0,0,1,8.938,4.188ZM19.443,9.531a3.9,3.9,0,0,0-3.883,3.892c0,.015.006.03.006.045a8.724,8.724,0,0,1-5.645-3.115.594.594,0,0,0-.974.077,3.8,3.8,0,0,0-.08,3.707.594.594,0,0,0-.471.581v.042A3.834,3.834,0,0,0,9.73,17.622a.594.594,0,0,0-.154.61,3.877,3.877,0,0,0,2.072,2.3,5.878,5.878,0,0,1-2.519.624,5.967,5.967,0,0,1-.713-.041.594.594,0,0,0-.393,1.089,9.879,9.879,0,0,0,5.362,1.576,9.639,9.639,0,0,0,7.394-3.259,10.323,10.323,0,0,0,2.559-6.717c0-.07,0-.138,0-.208A7.275,7.275,0,0,0,24.869,12a.594.594,0,0,0-.669-.9,3.767,3.767,0,0,0,.3-.558.594.594,0,0,0-.87-.691,6.006,6.006,0,0,1-1.7.654A3.814,3.814,0,0,0,19.443,9.531Zm0,1.188a2.678,2.678,0,0,1,1.967.854.594.594,0,0,0,.549.176c.092-.018.166-.077.256-.1-.013.008-.021.023-.035.031a.594.594,0,0,0,.317,1.1c-.042.032-.066.083-.109.114a.594.594,0,0,0-.246.506c.006.134.009.268.009.4a9.2,9.2,0,0,1-2.262,5.933,8.382,8.382,0,0,1-6.5,2.855,8.6,8.6,0,0,1-2.79-.5,7.154,7.154,0,0,0,2.985-1.288.594.594,0,0,0-.356-1.06,2.573,2.573,0,0,1-1.974-1.109,3.9,3.9,0,0,0,.535-.072.594.594,0,0,0-.041-1.155,2.679,2.679,0,0,1-2.027-1.893,3.623,3.623,0,0,0,.743.206.594.594,0,0,0,.349-1.087,2.7,2.7,0,0,1-1.2-2.252,2.507,2.507,0,0,1,.143-.531,9.862,9.862,0,0,0,6.457,2.912.594.594,0,0,0,.608-.729,2.709,2.709,0,0,1,2.626-3.319Z" transform="translate(-3 -3)" fill="#27c17d"/>
</svg>
