<svg xmlns="http://www.w3.org/2000/svg" width="176.523" height="37.923" viewBox="0 0 176.523 37.923">
  <g id="Group_219" data-name="Group 219" transform="translate(0 -0.8)">
    <path id="Path_309" data-name="Path 309" d="M1.073-.957a6.1,6.1,0,0,0,1.436-.116.766.766,0,0,0,.551-.435A3.114,3.114,0,0,0,3.19-2.581V-16.53a2.947,2.947,0,0,0-.145-1.087.8.8,0,0,0-.566-.45,5.929,5.929,0,0,0-1.407-.116v-.957H9.744q3.857,0,5.67,1.552a4.979,4.979,0,0,1,1.813,3.958,5.291,5.291,0,0,1-2.074,4.423Q13.079-7.6,8.729-7.6H7.6v5.017a2.825,2.825,0,0,0,.145,1.073.827.827,0,0,0,.595.435,6.7,6.7,0,0,0,1.493.116V0H1.073Zm7.714-7.8a3.591,3.591,0,0,0,2.857-1.218A5.292,5.292,0,0,0,12.7-13.543a5.053,5.053,0,0,0-.972-3.35,3.536,3.536,0,0,0-2.856-1.146,1.755,1.755,0,0,0-1.044.2,1.071,1.071,0,0,0-.232.812v8.265ZM33.06-.609a6.319,6.319,0,0,1-3.48.928,3.586,3.586,0,0,1-1.769-.377,1.77,1.77,0,0,1-.87-1.044A6.417,6.417,0,0,1,22.852.319a4.852,4.852,0,0,1-2.958-.783A2.686,2.686,0,0,1,18.85-2.755a3.917,3.917,0,0,1,2.117-3.306A16.506,16.506,0,0,1,26.854-8.12V-10.3a3.162,3.162,0,0,0-.493-1.871,2.025,2.025,0,0,0-1.682-.595,2.935,2.935,0,0,0-1.189.217q-.493.218-.493.537a1.008,1.008,0,0,0,.29.58,2.948,2.948,0,0,1,.333.493,1.328,1.328,0,0,1,.1.58,1.737,1.737,0,0,1-.551,1.291,1.99,1.99,0,0,1-1.45.536,1.979,1.979,0,0,1-1.465-.536,1.726,1.726,0,0,1-.536-1.262,2.627,2.627,0,0,1,.681-1.711,4.975,4.975,0,0,1,2.132-1.348,10.543,10.543,0,0,1,3.625-.536A5.063,5.063,0,0,1,29.8-12.8,4.739,4.739,0,0,1,30.943-9.28V-2.9a3.363,3.363,0,0,0,.188,1.392.654.654,0,0,0,.624.348,1.511,1.511,0,0,0,.653-.13l.333-.16ZM22.939-3.422A2.171,2.171,0,0,0,23.389-1.9a1.848,1.848,0,0,0,1.407.479,3.569,3.569,0,0,0,2.059-.841V-6.931a7.407,7.407,0,0,0-2.972,1.392A2.717,2.717,0,0,0,22.939-3.422ZM38.918.348A3.773,3.773,0,0,1,36.062-.667a4.579,4.579,0,0,1-.972-3.248v-8.671H33.35v-.957a5.228,5.228,0,0,0,3.016-1.769,8.487,8.487,0,0,0,1.885-3.451h.957v5.133H42.05v1.044H39.208v8.5a4.239,4.239,0,0,0,.377,2.045,1.326,1.326,0,0,0,1.247.653,2.062,2.062,0,0,0,.812-.16q.377-.159.812-.391l.493.812q-.116.087-.71.507a5.289,5.289,0,0,1-1.465.7A6.113,6.113,0,0,1,38.918.348ZM53.157-13.92a2.537,2.537,0,0,1,1.9.7,2.5,2.5,0,0,1,.681,1.827A2.436,2.436,0,0,1,55.216-9.8a1.9,1.9,0,0,1-1.566.638,2.018,2.018,0,0,1-1.392-.464,1.62,1.62,0,0,1-.522-1.276,1.378,1.378,0,0,1,.246-.885,1.035,1.035,0,0,0,.247-.391.207.207,0,0,0-.087-.16.351.351,0,0,0-.232-.073q-.493,0-1.029.71a6.548,6.548,0,0,0-.914,1.784,6.2,6.2,0,0,0-.377,2.059h-.029v5.452a2.022,2.022,0,0,0,.16.928.907.907,0,0,0,.609.406,6.514,6.514,0,0,0,1.465.116V0H43.587V-.957a4.556,4.556,0,0,0,1.218-.116.762.762,0,0,0,.507-.406,2.42,2.42,0,0,0,.131-.928v-8.584a1.648,1.648,0,0,0-.16-.885.818.818,0,0,0-.681-.217h-.957v-.957l4.553-.725h1.247v2.668h.087Q50.866-13.92,53.157-13.92ZM63.655.319q-3.654,0-5.423-1.74T56.463-6.786q0-3.654,1.784-5.423t5.466-1.769q3.625,0,5.365,1.74t1.74,5.394q0,3.683-1.755,5.423T63.655.319ZM63.684-.7A2.233,2.233,0,0,0,65.83-2.088a10.627,10.627,0,0,0,.667-4.35A13.409,13.409,0,0,0,65.83-11.4a2.271,2.271,0,0,0-2.2-1.537,2.252,2.252,0,0,0-2.175,1.522,12.242,12.242,0,0,0-.667,4.655,11.729,11.729,0,0,0,.667,4.64A2.293,2.293,0,0,0,63.684-.7Zm23.78-1.711a2.7,2.7,0,0,0,.116.928.708.708,0,0,0,.479.406,4.236,4.236,0,0,0,1.174.116V0h-7.4V-.957a4.046,4.046,0,0,0,1-.087.573.573,0,0,0,.406-.348,2.638,2.638,0,0,0,.1-.87v-6.96q0-2.958-2.117-2.958a2.708,2.708,0,0,0-1.349.333,6.357,6.357,0,0,0-1.32,1.059v8.439a2.42,2.42,0,0,0,.131.928.657.657,0,0,0,.45.377,4.238,4.238,0,0,0,1.015.087V0H72.587V-.957a4.556,4.556,0,0,0,1.218-.116.762.762,0,0,0,.507-.406,2.42,2.42,0,0,0,.131-.928v-8.584a1.648,1.648,0,0,0-.16-.885.818.818,0,0,0-.682-.217h-.957v-.957l4.553-.725h1.247v1.914h.087a9.126,9.126,0,0,1,2.132-1.523,5.671,5.671,0,0,1,2.6-.566,4.133,4.133,0,0,1,3.1,1.131,4.728,4.728,0,0,1,1.1,3.422ZM94.424-15.4a2.358,2.358,0,0,1-1.668-.667,2.144,2.144,0,0,1-.711-1.624,2.189,2.189,0,0,1,.711-1.639,2.331,2.331,0,0,1,1.668-.682,2.365,2.365,0,0,1,1.7.682,2.189,2.189,0,0,1,.711,1.639,2.124,2.124,0,0,1-.725,1.624A2.408,2.408,0,0,1,94.424-15.4ZM90.625-.957a4.556,4.556,0,0,0,1.218-.116.762.762,0,0,0,.507-.406,2.42,2.42,0,0,0,.131-.928v-8.584a1.648,1.648,0,0,0-.16-.885.818.818,0,0,0-.682-.217h-.957v-.957l4.64-.725H96.6V-2.407a2.7,2.7,0,0,0,.116.928.7.7,0,0,0,.464.406,3.789,3.789,0,0,0,1.1.116V0H90.625ZM105.5.348a7.112,7.112,0,0,1-2.639-.493,3.691,3.691,0,0,0-.986-.232.963.963,0,0,0-.783.406h-.7L100.137-4.7h.928a5.19,5.19,0,0,0,1.493,2.929A3.905,3.905,0,0,0,105.328-.7a3.1,3.1,0,0,0,1.87-.536,1.828,1.828,0,0,0,.74-1.581,1.62,1.62,0,0,0-.522-1.276,6.146,6.146,0,0,0-1.856-.957l-1.537-.435a6.838,6.838,0,0,1-2.9-1.668,3.5,3.5,0,0,1-.87-2.422,3.953,3.953,0,0,1,1.407-3.2,5.765,5.765,0,0,1,3.813-1.175,6.25,6.25,0,0,1,1.653.174q.609.174.7.2a2.708,2.708,0,0,0,.87.2.57.57,0,0,0,.435-.131,1.129,1.129,0,0,0,.2-.391h.725l.2,4.234h-.87a4.821,4.821,0,0,0-1.363-2.407,3.288,3.288,0,0,0-2.291-.87,2.74,2.74,0,0,0-1.7.493,1.529,1.529,0,0,0-.653,1.276,1.438,1.438,0,0,0,.624,1.233,6.762,6.762,0,0,0,1.7.827l1.334.406A7.445,7.445,0,0,1,110.113-7a3.639,3.639,0,0,1,.957,2.624,4.345,4.345,0,0,1-1.479,3.422A5.968,5.968,0,0,1,105.5.348Zm21.982-2.755a2.7,2.7,0,0,0,.116.928.708.708,0,0,0,.479.406,4.236,4.236,0,0,0,1.174.116V0h-7.395V-.957a3.49,3.49,0,0,0,1-.1.614.614,0,0,0,.406-.363,2.517,2.517,0,0,0,.1-.841v-6.96a3.752,3.752,0,0,0-.536-2.248,1.889,1.889,0,0,0-1.61-.71,2.65,2.65,0,0,0-1.319.333,5.533,5.533,0,0,0-1.291,1.087v8.41a2.455,2.455,0,0,0,.116.884.7.7,0,0,0,.435.392,3.348,3.348,0,0,0,1.044.116V0h-7.569V-.957a4.556,4.556,0,0,0,1.218-.116.762.762,0,0,0,.507-.406,2.42,2.42,0,0,0,.131-.928V-17.226a1.648,1.648,0,0,0-.16-.884.818.818,0,0,0-.682-.218h-.957v-.957l4.64-.725h1.276v8.033h.058a6.577,6.577,0,0,1,4.611-1.972,4.133,4.133,0,0,1,3.1,1.131,4.728,4.728,0,0,1,1.1,3.422Z" transform="translate(47.27 28)" fill="#fff"/>
    <g id="Group_237" data-name="Group 237" transform="translate(-234 -320.7)">
      <path id="Path_312" data-name="Path 312" d="M257.558,322.064a1.741,1.741,0,0,0-.237-.064,1.309,1.309,0,0,0-1.607.884,1.289,1.289,0,0,0,1.078,1.391,16.651,16.651,0,1,1-3.831-.445c.16,0,.32,0,.479.007h.03a1.309,1.309,0,0,0,1.413-1.169,1.239,1.239,0,0,0-1.086-1.136,6.648,6.648,0,0,0-.837-.033,18.955,18.955,0,1,0,4.6.564Z" transform="translate(0 0)" fill="#fff"/>
      <g id="Group_235" data-name="Group 235" transform="translate(246.932 329.947)">
        <path id="Path_313" data-name="Path 313" d="M346.165,414.971A1.165,1.165,0,0,1,345,413.806V395.165a1.165,1.165,0,1,1,2.33,0v16.488l11.129-7.27-8.666-5.5a1.165,1.165,0,0,1,1.248-1.968l10.194,6.466a1.165,1.165,0,0,1,.013,1.959L346.8,414.781A1.164,1.164,0,0,1,346.165,414.971Z" transform="translate(-345 -394)" fill="#fff"/>
      </g>
    </g>
  </g>
</svg>
