<svg xmlns="http://www.w3.org/2000/svg" width="244.28" height="50.791" viewBox="0 0 244.28 50.791">
  <g id="Group_229" data-name="Group 229" transform="translate(-94 -96.932)">
    <g id="Group_22" data-name="Group 22" transform="translate(-320.69 65.2)">
      <path id="Path_307" data-name="Path 307" d="M1.48-1.32a8.42,8.42,0,0,0,1.98-.16,1.056,1.056,0,0,0,.76-.6A4.3,4.3,0,0,0,4.4-3.56V-22.8a4.065,4.065,0,0,0-.2-1.5,1.109,1.109,0,0,0-.78-.62,8.178,8.178,0,0,0-1.94-.16V-26.4H13.44q5.32,0,7.82,2.14a6.868,6.868,0,0,1,2.5,5.46,7.3,7.3,0,0,1-2.86,6.1q-2.86,2.22-8.86,2.22H10.48v6.92a3.9,3.9,0,0,0,.2,1.48,1.141,1.141,0,0,0,.82.6,9.238,9.238,0,0,0,2.06.16V0H1.48ZM12.12-12.08a4.954,4.954,0,0,0,3.94-1.68,7.3,7.3,0,0,0,1.46-4.92,6.97,6.97,0,0,0-1.34-4.62,4.878,4.878,0,0,0-3.94-1.58,2.42,2.42,0,0,0-1.44.28,1.477,1.477,0,0,0-.32,1.12v11.4ZM45.6-.84A8.716,8.716,0,0,1,40.8.44a4.947,4.947,0,0,1-2.44-.52,2.441,2.441,0,0,1-1.2-1.44A8.852,8.852,0,0,1,31.52.44,6.692,6.692,0,0,1,27.44-.64,3.7,3.7,0,0,1,26-3.8q0-2.68,2.92-4.56a22.767,22.767,0,0,1,8.12-2.84v-3a4.361,4.361,0,0,0-.68-2.58,2.793,2.793,0,0,0-2.32-.82,4.049,4.049,0,0,0-1.64.3q-.68.3-.68.74a1.39,1.39,0,0,0,.4.8,4.066,4.066,0,0,1,.46.68,1.831,1.831,0,0,1,.14.8,2.4,2.4,0,0,1-.76,1.78,2.745,2.745,0,0,1-2,.74,2.73,2.73,0,0,1-2.02-.74,2.381,2.381,0,0,1-.74-1.74,3.624,3.624,0,0,1,.94-2.36,6.862,6.862,0,0,1,2.94-1.86,14.543,14.543,0,0,1,5-.74q3.44,0,5.02,1.54t1.58,4.86V-4a4.639,4.639,0,0,0,.26,1.92.9.9,0,0,0,.86.48,2.084,2.084,0,0,0,.9-.18q.38-.18.46-.22ZM31.64-4.72a3,3,0,0,0,.62,2.1,2.548,2.548,0,0,0,1.94.66,4.922,4.922,0,0,0,2.84-1.16V-9.56a10.217,10.217,0,0,0-4.1,1.92A3.747,3.747,0,0,0,31.64-4.72ZM53.68.48a5.2,5.2,0,0,1-3.94-1.4A6.315,6.315,0,0,1,48.4-5.4V-17.36H46v-1.32a7.211,7.211,0,0,0,4.16-2.44,11.706,11.706,0,0,0,2.6-4.76h1.32v7.08H58v1.44H54.08V-5.64a5.847,5.847,0,0,0,.52,2.82,1.829,1.829,0,0,0,1.72.9,2.845,2.845,0,0,0,1.12-.22q.52-.22,1.12-.54l.68,1.12q-.16.12-.98.7A7.3,7.3,0,0,1,56.24.1,8.432,8.432,0,0,1,53.68.48ZM73.32-19.2a3.5,3.5,0,0,1,2.62.96,3.448,3.448,0,0,1,.94,2.52,3.36,3.36,0,0,1-.72,2.2,2.627,2.627,0,0,1-2.16.88,2.784,2.784,0,0,1-1.92-.64,2.234,2.234,0,0,1-.72-1.76,1.9,1.9,0,0,1,.34-1.22,1.428,1.428,0,0,0,.34-.54.286.286,0,0,0-.12-.22.484.484,0,0,0-.32-.1q-.68,0-1.42.98a9.032,9.032,0,0,0-1.26,2.46,8.558,8.558,0,0,0-.52,2.84h-.04v7.52a2.789,2.789,0,0,0,.22,1.28,1.251,1.251,0,0,0,.84.56,8.985,8.985,0,0,0,2.02.16V0H60.12V-1.32a6.284,6.284,0,0,0,1.68-.16,1.051,1.051,0,0,0,.7-.56,3.338,3.338,0,0,0,.18-1.28V-15.16a2.274,2.274,0,0,0-.22-1.22,1.128,1.128,0,0,0-.94-.3H60.2V-18l6.28-1H68.2v3.68h.12Q70.16-19.2,73.32-19.2ZM87.8.44q-5.04,0-7.48-2.4t-2.44-7.4q0-5.04,2.46-7.48t7.54-2.44q5,0,7.4,2.4t2.4,7.44q0,5.08-2.42,7.48T87.8.44Zm.04-1.4A3.08,3.08,0,0,0,90.8-2.88a14.657,14.657,0,0,0,.92-6,18.5,18.5,0,0,0-.92-6.84,3.133,3.133,0,0,0-3.04-2.12,3.106,3.106,0,0,0-3,2.1,16.885,16.885,0,0,0-.92,6.42,16.178,16.178,0,0,0,.92,6.4A3.163,3.163,0,0,0,87.84-.96Zm32.8-2.36a3.721,3.721,0,0,0,.16,1.28.977.977,0,0,0,.66.56,5.842,5.842,0,0,0,1.62.16V0h-10.2V-1.32a5.581,5.581,0,0,0,1.38-.12.791.791,0,0,0,.56-.48,3.639,3.639,0,0,0,.14-1.2v-9.6q0-4.08-2.92-4.08a3.736,3.736,0,0,0-1.86.46,8.768,8.768,0,0,0-1.82,1.46V-3.24a3.338,3.338,0,0,0,.18,1.28.906.906,0,0,0,.62.52,5.846,5.846,0,0,0,1.4.12V0H100.12V-1.32a6.284,6.284,0,0,0,1.68-.16,1.051,1.051,0,0,0,.7-.56,3.338,3.338,0,0,0,.18-1.28V-15.16a2.274,2.274,0,0,0-.22-1.22,1.128,1.128,0,0,0-.94-.3H100.2V-18l6.28-1h1.72v2.64h.12a12.588,12.588,0,0,1,2.94-2.1,7.822,7.822,0,0,1,3.58-.78,5.7,5.7,0,0,1,4.28,1.56,6.522,6.522,0,0,1,1.52,4.72Zm9.6-17.92a3.252,3.252,0,0,1-2.3-.92,2.957,2.957,0,0,1-.98-2.24,3.02,3.02,0,0,1,.98-2.26,3.215,3.215,0,0,1,2.3-.94,3.263,3.263,0,0,1,2.34.94,3.02,3.02,0,0,1,.98,2.26,2.93,2.93,0,0,1-1,2.24A3.322,3.322,0,0,1,130.24-21.24ZM125-1.32a6.284,6.284,0,0,0,1.68-.16,1.051,1.051,0,0,0,.7-.56,3.338,3.338,0,0,0,.18-1.28V-15.16a2.274,2.274,0,0,0-.22-1.22,1.128,1.128,0,0,0-.94-.3h-1.32V-18l6.4-1h1.76V-3.32a3.721,3.721,0,0,0,.16,1.28.971.971,0,0,0,.64.56,5.225,5.225,0,0,0,1.52.16V0H125ZM145.52.48a9.81,9.81,0,0,1-3.64-.68,5.091,5.091,0,0,0-1.36-.32,1.328,1.328,0,0,0-1.08.56h-.96l-.36-6.52h1.28a7.159,7.159,0,0,0,2.06,4.04,5.387,5.387,0,0,0,3.82,1.48,4.281,4.281,0,0,0,2.58-.74,2.522,2.522,0,0,0,1.02-2.18,2.234,2.234,0,0,0-.72-1.76,8.477,8.477,0,0,0-2.56-1.32l-2.12-.6a9.432,9.432,0,0,1-4-2.3,4.822,4.822,0,0,1-1.2-3.34,5.453,5.453,0,0,1,1.94-4.42,7.951,7.951,0,0,1,5.26-1.62,8.62,8.62,0,0,1,2.28.24q.84.24.96.28a3.735,3.735,0,0,0,1.2.28.786.786,0,0,0,.6-.18,1.557,1.557,0,0,0,.28-.54h1l.28,5.84h-1.2A6.65,6.65,0,0,0,149-16.64a4.536,4.536,0,0,0-3.16-1.2,3.779,3.779,0,0,0-2.34.68,2.109,2.109,0,0,0-.9,1.76,1.983,1.983,0,0,0,.86,1.7,9.327,9.327,0,0,0,2.34,1.14l1.84.56a10.269,10.269,0,0,1,4.24,2.34,5.019,5.019,0,0,1,1.32,3.62,5.993,5.993,0,0,1-2.04,4.72A8.232,8.232,0,0,1,145.52.48Zm30.32-3.8A3.721,3.721,0,0,0,176-2.04a.977.977,0,0,0,.66.56,5.842,5.842,0,0,0,1.62.16V0h-10.2V-1.32a4.814,4.814,0,0,0,1.38-.14.846.846,0,0,0,.56-.5,3.471,3.471,0,0,0,.14-1.16v-9.6a5.176,5.176,0,0,0-.74-3.1,2.605,2.605,0,0,0-2.22-.98,3.656,3.656,0,0,0-1.82.46,7.631,7.631,0,0,0-1.78,1.5v11.6a3.386,3.386,0,0,0,.16,1.22.971.971,0,0,0,.6.54,4.617,4.617,0,0,0,1.44.16V0H155.36V-1.32a6.284,6.284,0,0,0,1.68-.16,1.051,1.051,0,0,0,.7-.56,3.338,3.338,0,0,0,.18-1.28V-23.76a2.274,2.274,0,0,0-.22-1.22,1.128,1.128,0,0,0-.94-.3h-1.32V-26.6l6.4-1h1.76v11.08h.08a9.072,9.072,0,0,1,6.36-2.72,5.7,5.7,0,0,1,4.28,1.56,6.522,6.522,0,0,1,1.52,4.72Z" transform="translate(480.69 68.8)"/>
    </g>
    <g id="Group_236" data-name="Group 236" transform="translate(-140 -224.568)">
      <path id="Path_312" data-name="Path 312" d="M265.551,322.255a2.33,2.33,0,0,0-.317-.086,1.753,1.753,0,0,0-2.152,1.183,1.726,1.726,0,0,0,1.444,1.863,22.3,22.3,0,1,1-5.131-.6c.214,0,.428,0,.642.01v0l.04,0a1.753,1.753,0,0,0,1.893-1.565,1.66,1.66,0,0,0-1.454-1.521,8.908,8.908,0,0,0-1.12-.044,25.386,25.386,0,1,0,6.156.756Z" transform="translate(0 0)" fill="#27c17d"/>
      <g id="Group_235" data-name="Group 235" transform="translate(251.32 332.813)">
        <path id="Path_313" data-name="Path 313" d="M346.56,422.087a1.56,1.56,0,0,1-1.56-1.56V395.56a1.56,1.56,0,1,1,3.121,0v22.083l14.906-9.737-11.606-7.362a1.56,1.56,0,1,1,1.671-2.635l13.653,8.66a1.56,1.56,0,0,1,.018,2.624l-19.349,12.639A1.56,1.56,0,0,1,346.56,422.087Z" transform="translate(-345 -394)"/>
      </g>
    </g>
  </g>
</svg>
